<?xml version="1.0" encoding="utf-8"?>
<!-- Generator: Adobe Illustrator 27.5.0, SVG Export Plug-In . SVG Version: 6.00 Build 0)  -->
<svg version="1.1" xmlns="http://www.w3.org/2000/svg" xmlns:xlink="http://www.w3.org/1999/xlink" x="0px" y="0px"
	 viewBox="0 0 1122 1122" style="enable-background:new 0 0 1122 1122;" xml:space="preserve">
<g id="Object">
	<g>
		<polygon style="fill:#AAD4C8;" points="416.274,282.548 416.274,590.888 803.951,590.888 660.923,436.721 803.951,282.548 		"/>
		<path style="fill:#616E7D;" d="M324.447,270.668c-1.689,0-3.335,0.684-4.521,1.873c-1.199,1.195-1.877,2.845-1.877,4.527v567.864
			c0,1.683,0.678,3.332,1.877,4.527c1.186,1.189,2.832,1.873,4.521,1.873h48.338c1.707,0,3.322-0.663,4.527-1.873
			c1.21-1.213,1.87-2.82,1.87-4.527V277.068c0-1.713-0.66-3.317-1.87-4.527c-1.204-1.21-2.82-1.873-4.527-1.873H324.447z"/>
	</g>
</g>
</svg>
